<svg width="44" height="34" viewBox="0 0 44 34" fill="none" xmlns="http://www.w3.org/2000/svg">
<path d="M32.2203 18.3339L29.465 27.0469C29.3034 27.556 28.8321 27.9034 28.2989 27.9034H19.7166C18.891 27.9034 18.2994 27.0985 18.5505 26.3074L21.3058 17.5977C21.464 17.0852 21.9387 16.7412 22.4719 16.7412H31.0542C31.8798 16.7412 32.4714 17.5462 32.2203 18.3339Z" fill="#232323"/>
<path d="M43.0892 1.59254L40.3339 10.3056C40.1722 10.8147 39.701 11.1587 39.1678 11.1587H18.5599C18.0886 11.1587 17.6793 11.4614 17.5314 11.9017C17.5279 11.9051 17.5245 11.912 17.5245 11.9154V11.9189L17.3181 12.5725V12.5759C17.3181 12.5793 17.3147 12.5862 17.3113 12.5897L14.2326 22.3209L10.9751 32.6266C10.8135 33.1357 10.3422 33.4831 9.8056 33.4831H1.22669C0.397685 33.4831 -0.190519 32.6782 0.0571413 31.887L3.08418 22.3209L6.34169 12.0152C6.50335 11.5061 6.97806 11.1587 7.51122 11.1587H16.9673C17.4419 11.1587 17.8616 10.8526 18.0026 10.402L18.3879 9.18426C18.3879 9.18082 18.3913 9.17393 18.3948 9.17049L21.0228 0.853056C21.1845 0.343961 21.6557 1.39092e-09 22.1923 1.39092e-09H41.9197C42.7486 -3.86352e-05 43.3403 0.804858 43.0892 1.59254Z" fill="#FFDD33"/>
</svg>
